<?xml version="1.0"?>
<svg version="1.1" xmlns="http://www.w3.org/2000/svg" width="415" height="200" style=""><path fill="#1dde4d" d="M15.953125,94.59375q0-0.734375,0.1796875-1.0703125t0.515625-0.46875t0.8125-0.1015625t1.1171875,0.03125q1.625,0,3.28125,0.5t2.984375,1.4609375t2.140625,2.3671875t0.8125,3.234375q0,1.21875-0.3515625,2.3046875t-0.9921875,2.03125t-1.5,1.7265625t-1.890625,1.359375q0.421875,0.421875,1.09375,1.4921875t1.328125,2.28125t1.1640625,2.3515625t0.6015625,1.71875l-0.1875,0.28125q-0.421875,0.25-1.015625,0.265625q-0.28125,0-0.734375-0.0703125t-0.578125-0.4140625q-0.640625-1.796875-1.3984375-3.703125t-1.8671875-3.4375l0-0.03125q-0.390625,0.15625-0.7734375,0.3046875t-0.7734375,0.2734375q0.125,1.734375,0.2578125,3.4140625t0.1328125,3.3984375q0,0.21875-0.2109375,0.3515625t-0.4765625,0.2109375t-0.5390625,0.109375t-0.4453125,0.03125q-0.15625,0-0.4453125-0.03125t-0.5546875-0.109375t-0.4609375-0.2265625t-0.1953125-0.3984375q0-1.734375-0.078125-3.4609375t-0.171875-3.4453125q-0.484375-0.3125-0.484375-0.8125q0-0.390625,0.375-0.53125q-0.1875-3.296875-0.4296875-6.578125t-0.2421875-6.609375z M18.78125,94.109375q0.21875,3.390625,0.4921875,6.703125t0.5234375,6.703125q1.09375-0.3125,2.0390625-1.0859375t1.6328125-1.7421875t1.0703125-2.109375t0.3828125-2.265625q0-1.25-0.5-2.3984375t-1.328125-2.0078125q-0.84375-0.859375-1.9375-1.34375q-0.96875-0.421875-2.03125-0.421875l-0.28125,0z M30.99484375,114.3125q0.03125-0.65625,0.03125-1.28125q0-2.265625,0.1640625-4.515625t0.2265625-4.515625q0.09375-2.59375,0.171875-5.140625t0.3125-5.125q0.0625-0.640625,0.3671875-0.8359375t0.9140625-0.1953125q0.28125,0,0.75,0.109375t0.46875,0.53125q0.21875,0.03125,0.4375,0.03125q0.328125,0,0.671875-0.0625q0.5625-0.09375,1.1484375-0.2109375t1.1640625-0.2265625t1.109375-0.109375q0.125,0,0.3515625,0.015625t0.453125,0.09375t0.3828125,0.1953125t0.15625,0.3046875t-0.3671875,0.3359375t-0.9609375,0.2578125t-1.28125,0.1875t-1.34375,0.1328125t-1.1640625,0.0859375t-0.7265625,0.03125l-0.03125,5.875l0.03125,2.921875q0.484375,0,1.453125-0.03125q0.390625-0.015625,0.78125-0.015625q0.59375,0,1.21875,0.03125q1.03125,0.046875,1.859375,0.1875t1.046875,0.5q0,0.21875-0.2265625,0.3515625t-0.5078125,0.1953125t-0.5703125,0.078125t-0.4140625,0.015625q-1.15625,0-2.328125-0.046875t-2.3125-0.1875q0,1.921875-0.1015625,3.8125t-0.1015625,3.8125q0,0.828125,0.015625,1.6328125t0.1875,1.6015625q0.421875-0.03125,0.9140625-0.078125t1-0.1171875t0.9765625-0.1171875t0.8125-0.046875q0.1875,0,0.5078125,0.046875t0.65625,0.15625t0.578125,0.2734375t0.2421875,0.3828125q0,0.25-0.4609375,0.4453125t-1.1796875,0.3125t-1.5703125,0.1640625t-1.6484375,0.0625t-1.4375,0.015625l-0.90625,0q-0.859375,0-1.2578125-0.3203125t-0.5546875-0.8359375q-0.125-0.421875-0.109375-0.953125l0-0.21875z M44.0209375,113.375q0.09375-2.53125,0.1640625-5.1875t0.1328125-5.2421875t0.09375-5.0234375t0.03125-4.546875q0.03125-0.421875,0.734375-0.671875t1.6796875-0.3671875t2.0625-0.1484375t1.9296875-0.03125q0.1875,0,0.78125-0.015625l0.296875,0q0.453125,0,0.953125,0.03125q0.65625,0.046875,1.1484375,0.203125t0.4921875,0.453125q0,0.21875-0.171875,0.3515625t-0.3984375,0.1953125t-0.46875,0.078125t-0.3359375,0.015625q-1.46875,0-2.90625-0.046875q-0.390625-0.015625-0.796875-0.015625q-1.0625,0-2.15625,0.09375q0.0625,0.1875,0.1015625,1.1328125t0.0390625,2.1328125t-0.015625,2.3203125t0,1.7421875l0,4.0625q0.484375-0.03125,0.953125-0.03125l0.9375,0l0.625-0.03125q0.3125-0.015625,0.65625-0.015625q0.359375,0,0.734375,0.015625q0.75,0.03125,1.3671875,0.1796875t0.6171875,0.5234375q0,0.28125-0.234375,0.4140625t-0.5234375,0.1953125t-0.546875,0.0625l-0.2890625,0q-0.890625,0-1.8515625-0.0625t-1.7890625-0.0625q-0.15625,0.0625-0.3359375,0.046875t-0.3203125-0.015625q0,2.34375-0.046875,4.6640625t-0.109375,4.6171875q0,0.453125-0.5703125,0.59375t-1.0859375,0.140625q-0.578125,0-0.9140625-0.140625t-0.4765625-0.4609375t-0.171875-0.8515625q-0.015625-0.296875-0.03125-0.65625q0-0.296875,0.015625-0.640625z M56.67203125,115.640625q0-0.09375,0.0625-0.6640625t0.1640625-1.390625t0.2265625-1.765625t0.21875-1.7890625t0.1640625-1.484375t0.0703125-0.859375q-0.125-0.0625-0.3046875-0.1796875t-0.1796875-0.2734375q0-0.21875,0.2109375-0.3515625t0.3671875-0.1953125q0.0625-0.796875,0.15625-2.21875t0.2890625-3.0703125t0.546875-3.34375t0.9296875-3.078125t1.390625-2.2578125t2-0.875t1.96875,0.75t1.2734375,1.953125t0.75,2.671875t0.390625,2.921875t0.1640625,2.71875t0.0625,2.03125q0.03125,0.484375,0.234375,0.6484375t0.4453125,0.2265625t0.4375,0.140625t0.1953125,0.390625q0,0.359375-0.4375,0.5t-0.6875,0.171875q0.15625,1.953125,0.4296875,3.84375t0.7265625,3.8125q0.0625,0.359375,0.171875,0.7265625t0.109375,0.7109375q0,0.25-0.171875,0.4140625t-0.4453125,0.2578125t-0.546875,0.125t-0.4609375,0.03125q-0.703125,0-1.1875-0.265625t-0.640625-1.015625q-0.421875-2.015625-0.828125-4.234375q-0.34375-1.921875-0.34375-3.734375q0-0.28125,0.015625-0.5625q-1.3125,0-2.640625,0.0625t-2.546875,0.46875q-0.03125,0.421875-0.15625,1.59375t-0.28125,2.515625t-0.3203125,2.5703125t-0.1953125,1.7421875q-0.03125,0.21875-0.3203125,0.4140625t-0.625,0.2109375t-0.59375-0.2109375t-0.2578125-0.8046875z M59.59390625,106.171875q1.21875-0.28125,2.4453125-0.328125t2.4765625-0.109375q-0.0625-0.390625-0.03125-0.8046875t0.03125-0.8359375q0-0.921875-0.046875-2.140625t-0.140625-2.46875t-0.2421875-2.4609375t-0.3359375-2.15625t-0.3984375-1.5078125t-0.4609375-0.5625q-0.484375,0.03125-0.9140625,0.8359375t-0.78125,2.046875t-0.640625,2.78125t-0.484375,3.0078125t-0.3203125,2.734375t-0.15625,1.96875z M71.46375,93.765625q0-0.21875,0.3046875-0.3359375t0.3984375-0.1171875l0.578125-0.09375q0.578125-0.09375,1.171875-0.1640625t1.15625-0.1328125q1.984375-0.25,3.96875-0.4921875t4-0.2421875q0.15625,0,0.4296875,0.015625t0.546875,0.0859375t0.46875,0.1953125t0.1953125,0.34375q0,0.15625-0.1484375,0.2734375t-0.3515625,0.1796875t-0.4140625,0.078125t-0.3359375,0.015625l-0.2734375,0t-0.2734375-0.0625q-0.828125,0-1.6328125,0.078125t-1.6328125,0.140625q0.21875,0.25,0.234375,0.703125t0.03125,0.78125q0,5.53125,0.078125,11t0.140625,11.046875l0,0.03125q-0.515625,0.453125-0.8828125,0.578125t-0.7421875,0.125q-0.359375,0-0.7265625-0.1328125t-0.8828125-0.5703125l0-0.03125l0.125-12.265625q0-1.21875-0.03125-2.6875t-0.03125-2.9765625t0.046875-2.9140625t0.25-2.453125q-0.921875,0.09375-1.953125,0.28125q-0.890625,0.15625-1.703125,0.15625l-0.28125,0q-0.0625,0-0.3671875,0.015625t-0.625-0.015625t-0.578125-0.125t-0.2578125-0.3125z M86.91171875,98.65625q0.15625-0.734375,0.6875-1.484375t1.015625-1.421875q0.28125-0.421875,0.6171875-0.96875t0.6875-1.0234375t0.7890625-0.796875t0.90625-0.3203125l0.21875,0q0.203125,0,0.4453125,0.0625t0.4453125,0.1953125t0.203125,0.3828125q0,0.3125-0.234375,0.703125t-0.390625,0.671875q-0.828125,1.5-1.328125,2.4296875t-0.8828125,1.4609375t-0.734375,0.71875t-0.9296875,0.1875q-0.28125,0-0.65625-0.0625t-0.625-0.3125q-0.21875-0.15625-0.234375-0.421875z M96.1253125,113.03125q0-0.546875,0.375-0.6953125t0.8125-0.1484375q0.765625,0,1.296875,0.6875t1.0078125,1.5078125t0.9453125,1.5078125t1.109375,0.6875q0.484375,0,0.8828125-0.2421875t0.6875-0.609375t0.4453125-0.828125t0.15625-0.9140625q0-1.1875-0.4765625-2.453125t-1.21875-2.609375t-1.5703125-2.75t-1.5625-2.859375t-1.21875-2.9609375t-0.484375-3.0390625q0-2.296875,1.375-3.5625t3.625-1.265625q0.765625,0,1.546875,0.21875t1.4375,0.65625t1.0703125,1.078125t0.4140625,1.5q0,0.28125-0.4140625,0.3671875t-0.6015625,0.0859375q-0.28125,0-0.609375-0.0703125t-0.421875-0.3828125t-0.265625-0.71875t-0.4296875-0.7578125t-0.609375-0.609375t-0.7734375-0.2578125q-0.703125,0-1.1953125,0.2890625t-0.796875,0.7734375t-0.453125,1.0859375t-0.1484375,1.2421875q0,1.5,0.515625,3.0234375t1.28125,3.03125t1.6640625,2.9765625t1.6640625,2.859375t1.28125,2.71875t0.515625,2.515625q0,1.0625-0.5,1.796875t-1.265625,1.1953125t-1.6953125,0.671875t-1.8203125,0.2109375q-0.953125,0-1.953125-0.3828125t-1.796875-1.0546875t-1.3125-1.5703125t-0.515625-1.9453125z"/><path fill="#" d="M115.0039453125,108.9501953125q0-2.7548828125,0.24755859375-5.51611328125t1.03466796875-5.43994140625q0.228515625-0.7998046875,0.5966796875-1.58056640625t0.9013671875-1.39013671875t1.26953125-0.990234375t1.751953125-0.380859375l0.2666015625,0.025390625q1.091796875,0.15234375,1.6123046875,0.88232421875t0.5205078125,1.82177734375q0,0.2919921875-0.06982421875,0.72998046875t-0.22216796875,0.84423828125t-0.41259765625,0.69189453125t-0.65380859375,0.28564453125q-0.177734375-0.025390625-0.32373046875-0.0634765625t-0.27294921875-0.1650390625q0.203125-0.4443359375,0.36181640625-0.9267578125t0.15869140625-1.1044921875q0-0.228515625-0.0380859375-0.583984375t-0.14599609375-0.70458984375t-0.28564453125-0.609375t-0.4951171875-0.26025390625q-0.7998046875,0-1.345703125,0.89501953125t-0.9140625,2.28515625t-0.5458984375,3.072265625t-0.27294921875,3.25t-0.10791015625,2.8310546875t-0.0126953125,1.78369140625q0,0.609375-0.0126953125,1.345703125l0,0.1650390625q0.0126953125,0.6474609375,0.0888671875,1.2314453125q0.1015625,0.66015625,0.3935546875,1.142578125t0.9140625,0.55859375q0.1904296875,0.025390625,0.3681640625,0.025390625q0.736328125,0,1.3330078125-0.4189453125q0.736328125-0.5205078125,1.3076171875-1.35205078125t1.015625-1.828125t0.81884765625-1.88525390625t0.72998046875-1.47265625t0.736328125-0.583984375q0.126953125,0,0.380859375,0.05078125t0.25390625,0.2412109375q0,0.05078125-0.025390625,0.1396484375t-0.0634765625,0.1396484375q-0.3427734375,1.345703125-0.86962890625,2.79296875t-1.345703125,2.63427734375t-2.005859375,1.93603515625t-2.85009765625,0.7490234375q-1.193359375,0-1.93603515625-0.45068359375t-1.142578125-1.2060546875t-0.5458984375-1.70751953125t-0.14599609375-1.9296875z M128.45678710938,112.7080078125q0-0.076171875,0.05078125-0.53955078125t0.13330078125-1.1298828125t0.18408203125-1.4345703125t0.177734375-1.45361328125t0.13330078125-1.2060546875t0.05712890625-0.6982421875q-0.1015625-0.05078125-0.24755859375-0.14599609375t-0.14599609375-0.22216796875q0-0.177734375,0.17138671875-0.28564453125t0.29833984375-0.15869140625q0.05078125-0.6474609375,0.126953125-1.802734375t0.23486328125-2.49462890625t0.4443359375-2.716796875t0.75537109375-2.5009765625t1.1298828125-1.83447265625t1.625-0.7109375t1.599609375,0.609375t1.03466796875,1.5869140625t0.609375,2.1708984375t0.3173828125,2.3740234375t0.13330078125,2.208984375t0.05078125,1.650390625q0.025390625,0.3935546875,0.1904296875,0.52685546875t0.36181640625,0.18408203125t0.35546875,0.1142578125t0.15869140625,0.3173828125q0,0.2919921875-0.35546875,0.40625t-0.55859375,0.1396484375q0.126953125,1.5869140625,0.34912109375,3.123046875t0.59033203125,3.09765625q0.05078125,0.2919921875,0.1396484375,0.59033203125t0.0888671875,0.57763671875q0,0.203125-0.1396484375,0.33642578125t-0.36181640625,0.20947265625t-0.4443359375,0.1015625t-0.37451171875,0.025390625q-0.5712890625,0-0.96484375-0.2158203125t-0.5205078125-0.8251953125q-0.3427734375-1.6376953125-0.6728515625-3.4404296875q-0.279296875-1.5615234375-0.279296875-3.0341796875q0-0.228515625,0.0126953125-0.45703125q-1.06640625,0-2.1455078125,0.05078125t-2.0693359375,0.380859375q-0.025390625,0.3427734375-0.126953125,1.294921875t-0.228515625,2.0439453125t-0.26025390625,2.08837890625t-0.15869140625,1.41552734375q-0.025390625,0.177734375-0.26025390625,0.33642578125t-0.5078125,0.17138671875t-0.482421875-0.17138671875t-0.20947265625-0.65380859375z M130.83081054688,105.0146484375q0.990234375-0.228515625,1.98681640625-0.2666015625t2.01220703125-0.0888671875q-0.05078125-0.3173828125-0.025390625-0.65380859375t0.025390625-0.67919921875q0-0.7490234375-0.0380859375-1.7392578125t-0.1142578125-2.005859375t-0.19677734375-1.99951171875t-0.27294921875-1.751953125t-0.32373046875-1.22509765625t-0.37451171875-0.45703125q-0.3935546875,0.025390625-0.74267578125,0.67919921875t-0.634765625,1.6630859375t-0.5205078125,2.259765625t-0.3935546875,2.44384765625t-0.26025390625,2.2216796875t-0.126953125,1.599609375z M141.27486328125,110.8671875q0.076171875-2.056640625,0.13330078125-4.21484375t0.10791015625-4.25927734375t0.076171875-4.08154296875t0.025390625-3.6943359375q0.025390625-0.3427734375,0.5966796875-0.5458984375t1.36474609375-0.29833984375t1.67578125-0.12060546875t1.56787109375-0.025390625q0.15234375,0,0.634765625-0.0126953125l0.2412109375,0q0.3681640625,0,0.7744140625,0.025390625q0.533203125,0.0380859375,0.93310546875,0.1650390625t0.39990234375,0.3681640625q0,0.177734375-0.1396484375,0.28564453125t-0.32373046875,0.15869140625t-0.380859375,0.0634765625t-0.27294921875,0.0126953125q-1.193359375,0-2.361328125-0.0380859375q-0.3173828125-0.0126953125-0.6474609375-0.0126953125q-0.86328125,0-1.751953125,0.076171875q0.05078125,0.15234375,0.08251953125,0.92041015625t0.03173828125,1.73291015625t-0.0126953125,1.88525390625t0,1.41552734375l0,3.30078125q0.3935546875-0.025390625,0.7744140625-0.025390625l0.76171875,0l0.5078125-0.025390625q0.25390625-0.0126953125,0.533203125-0.0126953125q0.2919921875,0,0.5966796875,0.0126953125q0.609375,0.025390625,1.11083984375,0.14599609375t0.50146484375,0.42529296875q0,0.228515625-0.1904296875,0.33642578125t-0.42529296875,0.15869140625t-0.4443359375,0.05078125l-0.23486328125,0q-0.7236328125,0-1.50439453125-0.05078125t-1.45361328125-0.05078125q-0.126953125,0.05078125-0.27294921875,0.0380859375t-0.26025390625-0.0126953125q0,1.904296875-0.0380859375,3.78955078125t-0.0888671875,3.75146484375q0,0.3681640625-0.46337890625,0.482421875t-0.88232421875,0.1142578125q-0.4697265625,0-0.74267578125-0.1142578125t-0.38720703125-0.37451171875t-0.1396484375-0.69189453125q-0.0126953125-0.2412109375-0.025390625-0.533203125q0-0.2412109375,0.0126953125-0.5205078125z M151.63004882812,111.62890625q0.025390625-0.533203125,0.025390625-1.041015625q0-1.8408203125,0.13330078125-3.6689453125t0.18408203125-3.6689453125q0.076171875-2.107421875,0.1396484375-4.1767578125t0.25390625-4.1640625q0.05078125-0.5205078125,0.29833984375-0.67919921875t0.74267578125-0.15869140625q0.228515625,0,0.609375,0.0888671875t0.380859375,0.431640625q0.177734375,0.025390625,0.35546875,0.025390625q0.2666015625,0,0.5458984375-0.05078125q0.45703125-0.076171875,0.93310546875-0.17138671875t0.94580078125-0.18408203125t0.9013671875-0.0888671875q0.1015625,0,0.28564453125,0.0126953125t0.3681640625,0.076171875t0.31103515625,0.15869140625t0.126953125,0.24755859375t-0.29833984375,0.27294921875t-0.78076171875,0.20947265625t-1.041015625,0.15234375t-1.091796875,0.10791015625t-0.94580078125,0.06982421875t-0.59033203125,0.025390625l-0.025390625,4.7734375l0.025390625,2.3740234375q0.3935546875,0,1.1806640625-0.025390625q0.3173828125-0.0126953125,0.634765625-0.0126953125q0.482421875,0,0.990234375,0.025390625q0.837890625,0.0380859375,1.5107421875,0.15234375t0.8505859375,0.40625q0,0.177734375-0.18408203125,0.28564453125t-0.41259765625,0.15869140625t-0.46337890625,0.0634765625t-0.33642578125,0.0126953125q-0.939453125,0-1.8916015625-0.0380859375t-1.87890625-0.15234375q0,1.5615234375-0.08251953125,3.09765625t-0.08251953125,3.09765625q0,0.6728515625,0.0126953125,1.32666015625t0.15234375,1.30126953125q0.3427734375-0.025390625,0.74267578125-0.0634765625t0.8125-0.09521484375t0.79345703125-0.09521484375t0.66015625-0.0380859375q0.15234375,0,0.41259765625,0.0380859375t0.533203125,0.126953125t0.4697265625,0.22216796875t0.19677734375,0.31103515625q0,0.203125-0.37451171875,0.36181640625t-0.95849609375,0.25390625t-1.27587890625,0.13330078125t-1.33935546875,0.05078125t-1.16796875,0.0126953125l-0.736328125,0q-0.6982421875,0-1.02197265625-0.26025390625t-0.45068359375-0.67919921875q-0.1015625-0.3427734375-0.0888671875-0.7744140625l0-0.177734375z"/></svg>
